<?xml version="1.0" standalone="no"?>
<!DOCTYPE svg PUBLIC "-//W3C//DTD SVG 20010904//EN"
 "http://www.w3.org/TR/2001/REC-SVG-20010904/DTD/svg10.dtd">
<svg version="1.0" xmlns="http://www.w3.org/2000/svg"
 width="700.000000pt" height="700.000000pt" viewBox="0 0 700.000000 700.000000"
 preserveAspectRatio="xMidYMid meet">
<metadata>
Created by potrace 1.14, written by Peter Selinger 2001-2017
</metadata>
<g transform="translate(0.000000,700.000000) scale(0.100000,-0.100000)"
fill="#000000" stroke="none">
<path d="M4015 5868 c-34 -19 -47 -54 -61 -158 -4 -30 -8 -64 -9 -75 -2 -11
-11 -69 -21 -130 -26 -161 -24 -192 10 -222 21 -18 36 -23 59 -19 58 9 74 43
92 196 3 30 8 62 10 70 2 8 7 35 10 60 2 25 9 72 15 105 14 87 12 130 -7 153
-22 25 -71 35 -98 20z"/>
<path d="M2981 5736 c-12 -13 -23 -37 -23 -52 0 -16 34 -117 77 -224 114 -288
106 -275 162 -286 36 -7 81 27 88 66 4 21 -58 197 -130 365 -7 17 -19 47 -26
69 -30 84 -100 114 -148 62z"/>
<path d="M4903 5413 c-119 -140 -272 -341 -278 -365 -12 -47 28 -97 79 -98 29
0 62 28 122 105 30 38 133 168 199 250 38 48 47 72 40 106 -8 33 -44 59 -84
59 -23 0 -39 -12 -78 -57z"/>
<path d="M2195 5150 c-24 -9 -52 -39 -56 -60 -9 -42 14 -71 129 -162 64 -51
124 -98 132 -105 156 -126 163 -129 211 -105 40 21 56 61 39 100 -12 29 -377
323 -414 333 -12 3 -30 3 -41 -1z"/>
<path d="M3615 5123 c-295 -55 -422 -108 -644 -270 -45 -32 -146 -137 -202
-208 -172 -218 -259 -458 -274 -755 -7 -133 -14 -228 -20 -260 -3 -14 -7 -41
-10 -60 -43 -262 -163 -574 -302 -785 -67 -102 -89 -131 -263 -349 -177 -223
-215 -279 -231 -345 -30 -120 -5 -253 65 -344 38 -50 374 -319 433 -347 106
-50 231 -51 335 -3 88 42 110 63 254 246 71 89 131 164 134 167 3 3 28 33 54
68 248 325 626 584 1039 712 56 17 138 42 182 56 411 128 740 481 844 908 27
110 33 153 36 277 5 232 -52 458 -167 658 -231 405 -657 648 -1122 640 -66 -1
-130 -4 -141 -6z m330 -168 c216 -30 455 -153 617 -319 388 -394 428 -1001 96
-1448 -49 -66 -179 -196 -228 -227 -14 -8 -27 -18 -30 -22 -5 -7 -103 -62
-160 -90 -33 -17 -98 -39 -321 -108 -395 -122 -761 -359 -1029 -668 l-45 -51
-115 92 c-63 51 -207 166 -320 256 -113 89 -206 166 -208 170 -2 5 19 39 45
77 245 344 388 769 409 1213 7 170 16 231 51 349 118 408 510 739 923 777 36
4 67 8 69 10 6 5 189 -3 246 -11z m-1745 -2629 c47 -37 92 -73 100 -79 8 -7
29 -23 46 -37 17 -14 46 -37 65 -52 179 -139 329 -261 329 -266 0 -4 -23 -35
-50 -69 l-50 -62 -295 294 c-162 162 -295 298 -295 302 0 16 44 52 54 45 6 -5
49 -39 96 -76z m39 -397 c160 -160 291 -296 291 -302 0 -6 -8 -19 -17 -29 -16
-18 -28 -7 -314 278 -296 296 -297 297 -281 320 9 13 20 24 23 24 4 0 137
-131 298 -291z m71 -401 c0 -11 -62 10 -99 35 -68 46 -296 230 -332 269 -38
41 -66 116 -61 162 3 28 17 16 248 -215 134 -134 244 -247 244 -251z"/>
<path d="M4313 4642 c-30 -5 -63 -48 -63 -83 0 -22 17 -46 78 -106 137 -137
216 -281 246 -453 14 -78 15 -230 2 -285 -21 -92 -33 -131 -66 -201 -35 -77
-83 -150 -144 -219 -28 -32 -34 -79 -13 -106 17 -23 50 -38 73 -34 10 2 22 4
26 4 12 2 53 45 100 107 129 169 198 374 198 589 0 276 -111 534 -311 719 -70
65 -87 74 -126 68z"/>
<path d="M3035 4498 c-11 -5 -44 -44 -73 -86 -60 -89 -67 -128 -27 -167 49
-49 98 -25 168 80 53 82 60 122 25 155 -12 11 -27 20 -32 21 -6 0 -18 2 -26 3
-8 2 -24 -1 -35 -6z"/>
<path d="M2848 4104 c-41 -22 -51 -69 -63 -314 -3 -63 -8 -124 -10 -135 -2
-11 -7 -42 -10 -70 -3 -27 -10 -68 -15 -90 -5 -22 -12 -55 -15 -74 -8 -49 -54
-222 -65 -246 -4 -11 -15 -42 -24 -68 -13 -42 -14 -54 -2 -82 8 -18 19 -36 26
-40 23 -14 79 -9 100 10 31 28 123 334 144 480 3 22 8 51 10 65 13 70 21 165
31 345 2 50 7 105 11 122 8 42 -11 90 -40 98 -46 14 -52 14 -78 -1z"/>
<path d="M4131 3124 c-29 -14 -82 -34 -117 -46 -94 -31 -121 -75 -84 -136 27
-44 71 -46 177 -6 165 62 208 113 151 178 -34 37 -65 40 -127 10z"/>
<path d="M5346 4561 c-140 -56 -226 -96 -238 -111 -23 -29 -23 -72 1 -101 32
-39 76 -30 317 66 185 74 224 93 238 116 31 52 -8 120 -67 118 -18 0 -131 -40
-251 -88z"/>
<path d="M1784 4210 c-28 -11 -54 -48 -54 -77 0 -27 38 -72 65 -77 11 -2 43
-7 70 -10 28 -4 57 -9 65 -11 8 -2 38 -6 65 -10 28 -3 61 -7 75 -10 69 -13 90
-16 157 -21 68 -7 72 -6 96 20 32 35 29 82 -8 113 -14 13 -34 23 -43 24 -9 0
-24 2 -32 4 -22 4 -71 12 -200 30 -63 9 -126 18 -140 20 -73 12 -97 13 -116 5z"/>
<path d="M5231 3699 c-32 -13 -50 -38 -51 -71 0 -59 28 -81 120 -93 30 -4 64
-9 75 -11 10 -2 37 -6 60 -9 22 -3 85 -13 140 -22 55 -8 109 -16 120 -17 66
-6 114 52 91 108 -14 36 -43 52 -106 61 -25 3 -56 8 -70 10 -14 2 -45 7 -70
10 -25 3 -56 8 -70 10 -43 8 -83 14 -135 20 -27 4 -57 8 -65 10 -8 2 -26 -1
-39 -6z"/>
<path d="M4896 2965 c-31 -26 -38 -67 -17 -99 29 -44 391 -326 419 -326 57 0
99 52 86 105 -5 20 -310 274 -394 328 -32 21 -64 18 -94 -8z"/>
<path d="M4266 2498 c-16 -14 -26 -35 -27 -53 -2 -43 167 -464 198 -492 13
-13 35 -23 49 -23 30 0 84 50 84 77 -1 31 -175 465 -198 489 -27 31 -73 31
-106 2z"/>
</g>
</svg>
